<svg width="14" height="12" viewBox="0 0 14 12" fill="none" xmlns="http://www.w3.org/2000/svg">
<path d="M3.00016 11.3332C2.26683 11.3332 1.63905 11.0721 1.11683 10.5498C0.594607 10.0276 0.333496 9.39984 0.333496 8.6665V3.33317C0.333496 2.59984 0.594607 1.97206 1.11683 1.44984C1.63905 0.927615 2.26683 0.666504 3.00016 0.666504H11.0002C11.7335 0.666504 12.3613 0.927615 12.8835 1.44984C13.4057 1.97206 13.6668 2.59984 13.6668 3.33317V8.6665C13.6668 9.39984 13.4057 10.0276 12.8835 10.5498C12.3613 11.0721 11.7335 11.3332 11.0002 11.3332H3.00016ZM3.00016 3.33317H11.0002C11.2446 3.33317 11.4779 3.36095 11.7002 3.4165C11.9224 3.47206 12.1335 3.56095 12.3335 3.68317V3.33317C12.3335 2.9665 12.2029 2.65262 11.9418 2.3915C11.6807 2.13039 11.3668 1.99984 11.0002 1.99984H3.00016C2.6335 1.99984 2.31961 2.13039 2.0585 2.3915C1.79738 2.65262 1.66683 2.9665 1.66683 3.33317V3.68317C1.86683 3.56095 2.07794 3.47206 2.30016 3.4165C2.52238 3.36095 2.75572 3.33317 3.00016 3.33317ZM1.76683 5.49984L9.1835 7.29984C9.2835 7.32206 9.3835 7.32206 9.4835 7.29984C9.5835 7.27762 9.67794 7.23317 9.76683 7.1665L12.0835 5.23317C11.9613 5.0665 11.8057 4.93039 11.6168 4.82484C11.4279 4.71928 11.2224 4.6665 11.0002 4.6665H3.00016C2.71127 4.6665 2.4585 4.7415 2.24183 4.8915C2.02516 5.0415 1.86683 5.24428 1.76683 5.49984Z" fill="white"/>
</svg>
